<?xml version="1.0" encoding="UTF-8"?>
<svg version="1.1" xmlns="http://www.w3.org/2000/svg" width="1999" height="681">
<path d="M0 0 C8.95428084 8.34737686 17.08912888 16.86493662 24 27 C24.74636719 28.04027344 25.49273438 29.08054687 26.26171875 30.15234375 C46.66612949 59.35339956 47 92.36633154 47 127 C-24.28 127 -95.56 127 -169 127 C-162.35229996 149.15900012 -156.57935165 166.42796122 -136.17480469 178.03857422 C-115.71981404 188.85354969 -92.27052297 191.04681208 -70 185 C-56.29971595 180.3413229 -40.51779817 172.079047 -33.30316162 158.90048218 C-31 156 -31 156 -27.8994751 155.2784729 C-26.68257996 155.29179657 -25.46568481 155.30512024 -24.21191406 155.31884766 C-23.53833359 155.3179715 -22.86475311 155.31709534 -22.17076111 155.31619263 C-19.9511895 155.32036276 -17.73466623 155.36697548 -15.515625 155.4140625 C-13.97436169 155.42525698 -12.43307698 155.43379598 -10.89178467 155.43978882 C-6.84044157 155.46266819 -2.79039482 155.52158109 1.26043701 155.5880127 C5.39610252 155.64945606 9.5319781 155.67680805 13.66796875 155.70703125 C21.77923992 155.77132753 29.88945858 155.87369345 38 156 C37.1969419 160.53611444 35.58431841 164.29413962 33.5 168.375 C33.14397705 169.07471924 32.7879541 169.77443848 32.42114258 170.49536133 C25.84486457 183.24809568 18.57070755 194.30248784 9 205 C8.31035156 205.82242188 7.62070313 206.64484375 6.91015625 207.4921875 C1.87237587 213.44686451 -3.81323227 218.26842975 -10 223 C-10.79148437 223.60714844 -11.58296875 224.21429688 -12.3984375 224.83984375 C-43.4373735 247.57766896 -82.67793692 252.42544705 -120 247 C-155.5271539 240.9566823 -185.75087021 221.32127256 -207.125 192.375 C-229.57223315 160.59421595 -239.34950407 121.96377344 -233.0390625 83.4453125 C-225.89208411 43.90248771 -203.25483804 9.67452581 -170.39160156 -13.58349609 C-163.63629476 -18.11350364 -156.42109248 -21.70357722 -149 -25 C-148.05640625 -25.42321533 -148.05640625 -25.42321533 -147.09375 -25.85498047 C-97.96287008 -47.56724693 -39.50899792 -35.70090174 0 0 Z M-143 41 C-143.79784912 41.69488525 -143.79784912 41.69488525 -144.61181641 42.40380859 C-155.4432972 52.04836863 -161.37526642 62.12579927 -166 76 C-118.48 76 -70.96 76 -22 76 C-26.00959427 57.95682578 -34.84370045 45.19904706 -50.12109375 34.74609375 C-79.36697231 17.00809142 -117.03521683 18.37791784 -143 41 Z " fill="#000000" transform="translate(1233,223)"/>
<path d="M0 0 C1.28777344 1.06347656 1.28777344 1.06347656 2.6015625 2.1484375 C19.70551541 16.87540601 29.66135319 36.53668194 32 59 C32 61.31 32 63.62 32 66 C10.88 66 -10.24 66 -32 66 C-32.99 62.37 -33.98 58.74 -35 55 C-40.03527569 45.74597981 -48.43423339 42.47532912 -57.921875 38.8984375 C-75.03221365 33.95031254 -97.95445032 35.00358962 -114.03125 42.83203125 C-118.74156997 45.62644726 -122.97840582 48.77992114 -125 54 C-125.66725803 59.13633506 -125.61468952 63.61694859 -123.5 68.375 C-118.19741795 73.94271116 -111.97924067 76.74978972 -104.6015625 78.5390625 C-103.79216217 78.74342926 -102.98276184 78.94779602 -102.14883423 79.15835571 C-89.93400141 82.12489087 -77.46439607 83.93215374 -65.05908203 85.90136719 C-33.04157745 91.0192487 0.23983613 98.36621998 24 122 C24.62390625 122.58910156 25.2478125 123.17820312 25.890625 123.78515625 C34.65573804 132.76742299 39.87163346 145.81693637 42 158 C42.12890625 158.6909375 42.2578125 159.381875 42.390625 160.09375 C42.69818033 162.06857895 42.8771783 164.00507785 43 166 C43.05285156 166.8559375 43.10570312 167.711875 43.16015625 168.59375 C43.87217039 191.6258597 34.92878502 210.51366077 19.375 227.125 C-7.14598441 252.62279829 -45.57903242 258.54484431 -80.88671875 258.21484375 C-112.85931506 257.52025624 -148.54843935 248.62666443 -173 227 C-173.928125 226.26716797 -173.928125 226.26716797 -174.875 225.51953125 C-188.40514793 214.73769462 -196.30257125 198.56448078 -200 182 C-200.33 177.05 -200.66 172.1 -201 167 C-179.55 167 -158.1 167 -136 167 C-134.68 169.64 -133.36 172.28 -132 175 C-124.29302741 186.38791473 -111.21694406 191.73931644 -98.25 194.75 C-78.55400126 198.50780536 -50.96506899 199.29371055 -33 189 C-31.329375 188.071875 -31.329375 188.071875 -29.625 187.125 C-25.73696332 183.97754173 -24.47367701 180.74896128 -23.1875 176 C-22.83160382 170.30566112 -24.88279189 166.71225048 -28.53662109 162.45361328 C-40.93655523 150.13642812 -65.48764243 149.02511657 -81.76489258 146.50106812 C-104.72909261 142.93627122 -126.97043316 138.25759447 -148 128 C-148.97332275 127.52675293 -148.97332275 127.52675293 -149.96630859 127.04394531 C-159.31908402 122.37843573 -166.69879447 116.36668719 -174 109 C-174.99966797 108.05060547 -174.99966797 108.05060547 -176.01953125 107.08203125 C-187.57130065 95.26949956 -191.99729143 78.49654717 -192.3125 62.4375 C-191.78633759 40.5216916 -185.56035339 21.78464677 -170 6 C-169.18982422 5.08154297 -169.18982422 5.08154297 -168.36328125 4.14453125 C-129.82127799 -38.28079727 -41.5727234 -34.8457455 0 0 Z " fill="#000000" transform="translate(1798,212)"/>
<path d="M0 0 C1.28777344 1.06347656 1.28777344 1.06347656 2.6015625 2.1484375 C15.30296905 13.0846939 24.01401512 26.52214121 28.9375 42.5 C29.13690186 43.12656494 29.33630371 43.75312988 29.54174805 44.39868164 C31.59381252 51.68099685 31.47325649 58.09884737 32 66 C10.88 66 -10.24 66 -32 66 C-32.99 62.37 -33.98 58.74 -35 55 C-40.03527569 45.74597981 -48.43423339 42.47532912 -57.921875 38.8984375 C-75.03221365 33.95031254 -97.95445032 35.00358962 -114.03125 42.83203125 C-118.74156997 45.62644726 -122.97840582 48.77992114 -125 54 C-125.66725803 59.13633506 -125.61468952 63.61694859 -123.5 68.375 C-118.19741795 73.94271116 -111.97924067 76.74978972 -104.6015625 78.5390625 C-103.79216217 78.74342926 -102.98276184 78.94779602 -102.14883423 79.15835571 C-89.93400141 82.12489087 -77.46439607 83.93215374 -65.05908203 85.90136719 C-33.04157745 91.0192487 0.23983613 98.36621998 24 122 C24.62390625 122.58910156 25.2478125 123.17820312 25.890625 123.78515625 C36.46945613 134.62607554 42.18414347 151.11679907 43 166 C43.07927734 167.31871094 43.07927734 167.31871094 43.16015625 168.6640625 C43.78450127 188.8059758 36.88364753 207.05785865 23.625 222.1875 C22.10110377 223.8085574 20.55990663 225.41356434 19 227 C18.32453125 227.68835938 17.6490625 228.37671875 16.953125 229.0859375 C-8.47839776 253.27456629 -47.7235422 258.95532547 -81.30859375 258.28515625 C-113.24483601 257.18580987 -148.52933643 248.6435604 -173 227 C-173.928125 226.26716797 -173.928125 226.26716797 -174.875 225.51953125 C-188.41718732 214.72810073 -197.16309736 197.90922197 -200 181 C-200.33 176.38 -200.66 171.76 -201 167 C-179.55 167 -158.1 167 -136 167 C-134.68 169.64 -133.36 172.28 -132 175 C-124.81945466 186.30053038 -111.91845715 191.28855719 -99.47265625 194.30859375 C-79.59474256 198.2662886 -51.1653004 199.4084401 -33 189 C-31.329375 188.071875 -31.329375 188.071875 -29.625 187.125 C-25.73696332 183.97754173 -24.47367701 180.74896128 -23.1875 176 C-22.87837276 171.05396421 -24.32094047 168.0398099 -27 163.9375 C-37.48600545 152.33339022 -58.57550431 150.26180634 -73.2442627 147.97512817 C-77.76461855 147.26611547 -82.27674914 146.50827682 -86.7890625 145.75 C-87.67581665 145.60119888 -88.5625708 145.45239777 -89.47619629 145.29908752 C-117.42541983 140.56406482 -147.40147487 133.55391432 -169 114 C-169.77988281 113.30132812 -170.55976563 112.60265625 -171.36328125 111.8828125 C-184.44148244 99.52995692 -191.21074403 83.49208305 -192.18359375 65.62890625 C-192.58925114 44.22451321 -187.21417315 23.92070979 -172.18261719 8.17675781 C-170.80164551 6.77137739 -169.40117927 5.38523413 -168 4 C-167.26910156 3.25878906 -166.53820312 2.51757812 -165.78515625 1.75390625 C-125.34087526 -36.88280911 -41.91728032 -35.13454888 0 0 Z " fill="#000000" transform="translate(382,212)"/>
<path d="M0 0 C3.04624947 2.68566904 5.97195922 5.48087144 8.8515625 8.34375 C9.32190918 8.81006836 9.79225586 9.27638672 10.27685547 9.75683594 C17.98921694 17.51445463 24.18862612 25.99990497 29.8515625 35.34375 C30.21378906 35.94026367 30.57601563 36.53677734 30.94921875 37.15136719 C37.28499892 47.79477649 44.8515625 61.78742606 44.8515625 74.34375 C22.7415625 74.34375 0.6315625 74.34375 -22.1484375 74.34375 C-24.1284375 70.71375 -26.1084375 67.08375 -28.1484375 63.34375 C-41.47546554 46.0935288 -60.30097247 34.16023043 -82.1484375 31.34375 C-95.06431624 30.511586 -106.84202373 31.32076797 -119.1484375 35.34375 C-120.06753906 35.6325 -120.98664063 35.92125 -121.93359375 36.21875 C-140.18891358 42.69924389 -153.9587486 57.32864653 -162.8984375 74.03125 C-171.64525507 92.52566518 -173.74387351 114.89195577 -166.88476562 134.43017578 C-162.87757896 144.84407801 -157.69880612 154.06768133 -150.1484375 162.34375 C-149.37306641 163.25640625 -149.37306641 163.25640625 -148.58203125 164.1875 C-137.06987809 176.88260624 -118.33737267 185.18832856 -101.453125 186.56323242 C-78.75087471 187.52461145 -57.39364265 183.09782839 -40.1484375 167.34375 C-38.90320313 166.21839844 -38.90320313 166.21839844 -37.6328125 165.0703125 C-31.14406183 158.91182759 -25.02181341 151.96387772 -22.1484375 143.34375 C-0.0384375 143.34375 22.0715625 143.34375 44.8515625 143.34375 C41.13206595 169.38022586 25.7248697 191.79136578 7.8515625 210.34375 C7.20960938 211.04886719 6.56765625 211.75398437 5.90625 212.48046875 C-17.26556551 237.20710305 -53.1906749 250.39224692 -86.484375 251.5625 C-123.09998505 252.38326947 -157.25597062 241.38898007 -185.1484375 217.34375 C-186.59863281 216.09464844 -186.59863281 216.09464844 -188.078125 214.8203125 C-215.26183516 190.91237627 -232.78474314 155.51543637 -235.1484375 119.34375 C-237.13666266 80.90215155 -225.64989415 44.41089705 -200.1484375 15.34375 C-199.07142578 14.06757813 -199.07142578 14.06757813 -197.97265625 12.765625 C-192.57916335 6.51951954 -186.70602515 1.33878747 -180.1484375 -3.65625 C-179.62121094 -4.06375488 -179.09398437 -4.47125977 -178.55078125 -4.89111328 C-126.27878868 -45.03736289 -50.02859082 -42.8547979 0 0 Z " fill="#000000" transform="translate(685.1484375,219.65625)"/>
<path d="M0 0 C3.42889746 2.90496608 6.73343487 5.91431958 10 9 C10.75023437 9.68578125 11.50046875 10.3715625 12.2734375 11.078125 C25.65626514 23.75659329 34.85234565 40.00466988 40.8125 57.3125 C41.09053467 58.10470947 41.36856934 58.89691895 41.6550293 59.71313477 C46.35613352 74.14845846 47.44783396 88.8639376 47.34057617 103.92431641 C47.33972698 105.63138311 47.34021072 107.3384509 47.34190369 109.04551697 C47.34275369 113.61671888 47.32529206 118.18767775 47.30418181 122.75882387 C47.28524627 127.55936688 47.28365143 132.35991734 47.28010559 137.16049194 C47.27083416 146.22289143 47.24628778 155.2851805 47.21605712 164.34753168 C47.18235918 174.67663658 47.16598865 185.00574715 47.15097082 195.33489347 C47.11973302 216.55667069 47.06478337 237.77829684 47 259 C25.55 259 4.1 259 -18 259 C-18.0093457 253.85768799 -18.01869141 248.71537598 -18.02832031 243.41723633 C-18.06211676 226.4099224 -18.1174809 209.4027289 -18.18390274 192.39551258 C-18.22364187 182.08601955 -18.25606036 171.77660228 -18.27099609 161.46704102 C-18.28403922 152.47687986 -18.31107161 143.48688577 -18.35461307 134.49681872 C-18.37716814 129.74055984 -18.39291427 124.98450657 -18.39188385 120.22818947 C-18.3911337 115.74241872 -18.40922567 111.25710144 -18.44116783 106.77144814 C-18.44961837 105.13373384 -18.45145007 103.49596839 -18.44580269 101.85824203 C-18.39453197 84.6901144 -22.49850385 69.02668901 -34.54296875 56.19921875 C-48.4921783 43.71367825 -64.23985966 39.06365623 -82.74658203 39.82080078 C-95.88329241 40.86547526 -109.28832341 48.26706114 -118 58 C-126.54225757 69.0585815 -132.08556313 80.94607854 -132.15821838 95.09309387 C-132.16315636 95.79565345 -132.16809434 96.49821303 -132.17318195 97.22206229 C-132.18850607 99.56967008 -132.19690372 101.91725063 -132.20532227 104.26489258 C-132.21490479 105.95034015 -132.22491509 107.63578534 -132.23532104 109.32122803 C-132.26233558 113.89308492 -132.28336383 118.46495209 -132.30332303 123.03684449 C-132.32520387 127.81614187 -132.3525823 132.59540767 -132.37937927 137.37467957 C-132.42927778 146.42327541 -132.47422716 155.47188881 -132.51740164 164.52051896 C-132.5667983 174.82275721 -132.62170742 185.12496376 -132.67708123 195.42717135 C-132.79085765 216.61808611 -132.89697845 237.80903004 -133 259 C-154.78 259 -176.56 259 -199 259 C-199.09058136 236.39785973 -199.16414478 213.7958683 -199.20724869 191.19359207 C-199.22780185 180.69702874 -199.25578249 170.20058688 -199.30175781 159.70410156 C-199.34184893 150.54659014 -199.36748535 141.38916677 -199.37635398 132.23157001 C-199.38153133 127.39063017 -199.39354553 122.54994205 -199.42292023 117.70908356 C-199.6715769 75.04360724 -193.10911069 42.01546034 -163 10 C-162.46246094 9.39800781 -161.92492188 8.79601562 -161.37109375 8.17578125 C-120.4362049 -35.83691879 -45.36499144 -36.68103443 0 0 Z " fill="#000000" transform="translate(1513,213)"/>
<path d="M0 0 C21.12 0 42.24 0 64 0 C64.01981934 8.49548584 64.03963867 16.99097168 64.06005859 25.74389648 C64.12488337 52.93456068 64.19941709 80.12519053 64.28005161 107.31581226 C64.29257029 111.54021251 64.3050031 115.76461301 64.31738281 119.98901367 C64.31984881 120.83000624 64.3223148 121.67099882 64.32485552 122.53747601 C64.36456568 136.14988985 64.39732073 149.76231197 64.42749982 163.37474989 C64.45862756 177.34516153 64.49724264 191.31553805 64.54279006 205.28591019 C64.57065367 213.90449308 64.59269593 222.52305033 64.60726251 231.14166612 C64.61781478 237.05392939 64.63564801 242.96614294 64.65916704 248.87836873 C64.67251697 252.28802135 64.68269464 255.69760439 64.68421364 259.10728455 C64.68754087 262.80891929 64.70303148 266.51031322 64.7215271 270.2118988 C64.718625 271.81844657 64.718625 271.81844657 64.71566427 273.45744985 C64.76894577 280.59617845 64.96083927 287.64995023 68.75 293.875 C78.25191392 302.84902981 93.10541027 300.45933683 105 301 C105 319.48 105 337.96 105 357 C96.151875 357.12375 96.151875 357.12375 87.125 357.25 C85.30500488 357.28641602 83.48500977 357.32283203 81.60986328 357.36035156 C61.75164663 357.58823879 42.85594986 353.54732469 27 341 C25.74896484 340.03126953 25.74896484 340.03126953 24.47265625 339.04296875 C8.33438303 325.63999608 1.91333487 306.35831969 0 286 C-0.47651163 277.21400042 -0.3898256 268.41124206 -0.34819686 259.61545813 C-0.33504929 256.11951018 -0.33963895 252.62357503 -0.34190369 249.12760925 C-0.34346479 243.09339674 -0.33417868 237.05928273 -0.31719017 231.02509499 C-0.29264491 222.30105387 -0.28497917 213.57705962 -0.2812262 204.85298773 C-0.27468584 190.69338746 -0.25479082 176.5338395 -0.22631836 162.37426758 C-0.19871486 148.63240823 -0.17751221 134.89056317 -0.16479492 121.14868164 C-0.16400675 120.29939265 -0.16321858 119.45010366 -0.16240653 118.57507864 C-0.15849097 114.31377641 -0.15469995 110.05247407 -0.15097082 105.79117167 C-0.11995026 70.52740129 -0.06468826 35.26372784 0 0 Z " fill="#000000" transform="translate(886,115)"/>
<path d="M0 0 C20.13 0 40.26 0 61 0 C61 84.48 61 168.96 61 256 C40.87 256 20.74 256 0 256 C0 171.52 0 87.04 0 0 Z " fill="#000000" transform="translate(773,217)"/>
<path d="M0 0 C8.01327583 6.72175885 12.44834317 13.77044031 14.8828125 23.9140625 C15.96554008 36.36542967 13.36883698 47.66384025 5.67578125 57.6875 C-0.75310649 64.85156469 -10.0028501 69.17329106 -19.5234375 70.02734375 C-29.88091979 70.29766266 -40.00277241 68.30439169 -48.09375 61.4765625 C-56.27671235 53.69013137 -61.22490786 45.52159535 -62.0703125 34.02734375 C-62.26000041 22.18765669 -59.34014265 13.17417684 -51.6171875 4.1640625 C-36.85089515 -8.58864453 -16.50297204 -12.00753879 0 0 Z " fill="#000000" transform="translate(826.8671875,123.2109375)"/>
</svg>
